
<svg id="Layer_1" data-name="Layer 1" xmlns="http://www.w3.org/2000/svg" xmlns:xlink="http://www.w3.org/1999/xlink" viewBox="0 0 210.43 210.44"><defs><style>.cls-1{fill:none;}.cls-2{clip-path:url(#clip-path);}.cls-3,.cls-6,.cls-7{fill:#fff;}.cls-4{clip-path:url(#clip-path-2);}.cls-5{fill:#f76c6c;}.cls-6{font-size:15.08px;}.cls-6,.cls-7{font-family:Rajdhani-Bold, Rajdhani;font-weight:700;}.cls-7{font-size:15.53px;}</style><clipPath id="clip-path" transform="translate(-80.45 -72.21)"><rect class="cls-1" x="80.43" y="72.21" width="210.44" height="210.44"/></clipPath><clipPath id="clip-path-2" transform="translate(-80.45 -72.21)"><rect class="cls-1" x="82.12" y="211.29" width="207.06" height="27.74"/></clipPath></defs><g class="cls-2"><path d="M286.4,177.43c0-5,5.1-10.22,4.42-15s-7.07-8.5-8.46-13.13,2-11.2,0-15.62-9.22-6.14-11.87-10.22-1.26-11.28-4.5-14.94-10.56-3.33-14.31-6.53-4.38-10.44-8.54-13.09-11.07-.25-15.58-2.27-7.15-8.8-11.91-10.19S205,79.37,200,78.65s-9.38-6.44-14.39-6.44-9.56,5.77-14.36,6.44-10.9-3.53-15.57-2.19-7.49,8.17-11.91,10.19-11.45-.34-15.57,2.27S123.4,98.81,119.7,102s-11.07,2.82-14.31,6.53-1.81,10.81-4.51,14.94S91.08,129.24,89,133.7s1.35,10.86,0,15.62-7.74,8.25-8.46,13.13,4.42,10,4.42,15-5.09,10.23-4.42,15,7.07,8.5,8.46,13.13-2,11.19,0,15.61,9.22,6.15,11.87,10.23,1.26,11.28,4.51,14.94,10.56,3.33,14.31,6.52,4.37,10.44,8.54,13.09,11.07.26,15.57,2.28S151,277,155.72,278.4s10.65-2.9,15.57-2.19,9.35,6.44,14.36,6.44,9.55-5.76,14.35-6.44,10.9,3.54,15.57,2.19,7.49-8.16,11.91-10.18,11.45.33,15.57-2.28,4.84-9.89,8.55-13.09,11.07-2.82,14.31-6.52,1.81-10.82,4.5-14.94,9.81-5.77,11.87-10.23-1.35-10.86,0-15.61,7.75-8.25,8.46-13.13S286.4,182.4,286.4,177.43Z" transform="translate(-80.45 -72.21)"/></g><path class="cls-3" d="M185.65,259a81.42,81.42,0,1,1,81.41-81.42A81.51,81.51,0,0,1,185.65,259Zm0-169.72a88.3,88.3,0,1,0,88.3,88.3A88.41,88.41,0,0,0,185.65,89.26Z" transform="translate(-80.45 -72.21)"/><circle class="cls-3" cx="105.2" cy="105.35" r="76.82"/><path d="M158.87,154.8h-5.14a.82.82,0,0,1-.91-.77l-3.92-22c-.08-.51.18-.77.77-.77h3.81c.56,0,.85.26.88.77l2.12,18.07h.26l3.52-18.18a.7.7,0,0,1,.77-.66h4.1a.72.72,0,0,1,.81.62l3.59,18.22h.29l2.09-18a.77.77,0,0,1,.88-.81h3.81c.59,0,.85.27.77.81l-4,22a.79.79,0,0,1-.85.77H167.4a.81.81,0,0,1-.88-.77l-3.29-17.19h-.15L159.74,154A.82.82,0,0,1,158.87,154.8Z" transform="translate(-80.45 -72.21)"/><path d="M185.14,132v22a.68.68,0,0,1-.77.77h-3.12a.68.68,0,0,1-.77-.77V132a.68.68,0,0,1,.77-.77h3.12A.68.68,0,0,1,185.14,132Z" transform="translate(-80.45 -72.21)"/><path d="M202.91,154.8h-12a.68.68,0,0,1-.77-.77V132a.68.68,0,0,1,.77-.77H194a.68.68,0,0,1,.77.77v18.33c0,.26.15.4.44.4h7.73c.49,0,.74.27.74.81V154A.67.67,0,0,1,202.91,154.8Z" transform="translate(-80.45 -72.21)"/><path d="M206.54,154V132a.68.68,0,0,1,.77-.77h9.05a6.12,6.12,0,0,1,4.46,1.56,5.9,5.9,0,0,1,1.59,4.41v11.62a5.91,5.91,0,0,1-1.59,4.42,6.12,6.12,0,0,1-4.46,1.56h-9.05A.68.68,0,0,1,206.54,154Zm5.06-3.26h4a1.84,1.84,0,0,0,2.17-2.17V137.42a2.29,2.29,0,0,0-.5-1.66,2.31,2.31,0,0,0-1.67-.5h-4a.37.37,0,0,0-.41.41v14.69A.37.37,0,0,0,211.6,150.77Z" transform="translate(-80.45 -72.21)"/><path d="M126,195.23h-3.51c-.44,0-.59-.26-.44-.77l5.79-22a1,1,0,0,1,1.1-.76h4.87a1,1,0,0,1,1.1.76l5.79,22c.15.51,0,.77-.44.77h-3.52a.72.72,0,0,1-.55-.16,1.24,1.24,0,0,1-.22-.61l-1-4h-7.15l-1,4a1.14,1.14,0,0,1-.23.61A.74.74,0,0,1,126,195.23Zm5.32-19.13-2.64,10.59h5.42l-2.63-10.59Z" transform="translate(-80.45 -72.21)"/><path d="M143.91,194.46v-22a.68.68,0,0,1,.77-.76h9a6.07,6.07,0,0,1,4.45,1.55,5.87,5.87,0,0,1,1.6,4.42v11.62a5.85,5.85,0,0,1-1.6,4.41,6.08,6.08,0,0,1-4.45,1.56h-9A.68.68,0,0,1,143.91,194.46ZM149,191.2h4a2.31,2.31,0,0,0,1.67-.5,2.29,2.29,0,0,0,.49-1.66V177.86A1.82,1.82,0,0,0,153,175.7h-4a.36.36,0,0,0-.41.4v14.7A.36.36,0,0,0,149,191.2Z" transform="translate(-80.45 -72.21)"/><path d="M173.78,195.23H169a.85.85,0,0,1-.92-.77l-5.68-22c-.17-.56.07-.84.73-.84h3.45a.82.82,0,0,1,.88.76l3.85,18h.14l3.85-18a.82.82,0,0,1,.88-.76h3.44c.62,0,.86.28.74.84l-5.68,22A.87.87,0,0,1,173.78,195.23Z" transform="translate(-80.45 -72.21)"/><path d="M188.1,172.43v22a.68.68,0,0,1-.77.77h-3.11a.68.68,0,0,1-.77-.77v-22a.68.68,0,0,1,.77-.76h3.11A.67.67,0,0,1,188.1,172.43Z" transform="translate(-80.45 -72.21)"/><path d="M192.47,189.22v-.73a.68.68,0,0,1,.77-.77h3.11a.68.68,0,0,1,.77.77v.29a2.58,2.58,0,0,0,.55,1.91,3,3,0,0,0,2,.51h1.72a2.8,2.8,0,0,0,2-.55,2.84,2.84,0,0,0,.57-2.05v-.44a1.82,1.82,0,0,0-.86-1.63,4.48,4.48,0,0,0-2.14-.68,22,22,0,0,1-2.77-.42,18.32,18.32,0,0,1-2.77-.81,4.36,4.36,0,0,1-2.14-1.94,7.26,7.26,0,0,1-.86-3.72v-1.28a5.94,5.94,0,0,1,1.61-4.44,6.14,6.14,0,0,1,4.47-1.57h3.67a6.19,6.19,0,0,1,4.51,1.57,5.94,5.94,0,0,1,1.61,4.44v.69a.68.68,0,0,1-.77.77h-3.12a.68.68,0,0,1-.77-.77v-.22a2.61,2.61,0,0,0-.55-1.94,3,3,0,0,0-2-.51h-1.43a2.8,2.8,0,0,0-2,.56,3.32,3.32,0,0,0-.54,2.22v.7c0,1.15,1,1.81,3,2a18.57,18.57,0,0,1,5.53,1.24,4.73,4.73,0,0,1,2.15,2,6.91,6.91,0,0,1,.86,3.61v1.25a5.94,5.94,0,0,1-1.61,4.44,6.15,6.15,0,0,1-4.48,1.57h-4a6.11,6.11,0,0,1-4.47-1.57A5.9,5.9,0,0,1,192.47,189.22Z" transform="translate(-80.45 -72.21)"/><path d="M222.59,195.23h-4.11a6.11,6.11,0,0,1-4.47-1.54,5.9,5.9,0,0,1-1.57-4.43V177.64A5.94,5.94,0,0,1,214,173.2a6.15,6.15,0,0,1,4.47-1.53h4.11a6.15,6.15,0,0,1,4.47,1.53,5.94,5.94,0,0,1,1.58,4.44v11.62a5.9,5.9,0,0,1-1.58,4.43A6.11,6.11,0,0,1,222.59,195.23Zm-3.37-4h2.6a2.31,2.31,0,0,0,1.67-.5A2.29,2.29,0,0,0,224,189V177.86a1.82,1.82,0,0,0-2.16-2.16h-2.6a2.21,2.21,0,0,0-1.65.49,2.36,2.36,0,0,0-.48,1.67V189a2.34,2.34,0,0,0,.48,1.66A2.21,2.21,0,0,0,219.22,191.2Z" transform="translate(-80.45 -72.21)"/><path d="M236.92,195.23H233.8a.68.68,0,0,1-.77-.77v-22a.68.68,0,0,1,.77-.76h8.72a6.11,6.11,0,0,1,4.47,1.57,5.91,5.91,0,0,1,1.62,4.44v2.85q0,4.16-3.26,5.5v.15l3.92,8.17c.22.59,0,.88-.63.88h-3a2.28,2.28,0,0,1-1-.15,1.05,1.05,0,0,1-.47-.62l-3.67-7.91h-2.45c-.3,0-.44.13-.44.4v7.51A.68.68,0,0,1,236.92,195.23Zm1.17-12.42h3.59a2.51,2.51,0,0,0,1.72-.5,2,2,0,0,0,.55-1.59v-2.86a2.15,2.15,0,0,0-.55-1.65,2.46,2.46,0,0,0-1.72-.51h-3.59a.35.35,0,0,0-.4.4v6.3A.36.36,0,0,0,238.09,182.81Z" transform="translate(-80.45 -72.21)"/><g class="cls-4"><rect class="cls-5" x="1.67" y="139.08" width="207.06" height="27.74"/></g><text class="cls-6" transform="translate(70.74 152.32)"> </text><text class="cls-6" transform="translate(114.47 152.32)"> </text><text class="cls-7" transform="translate(43.36 158.1)">L</text><text class="cls-7" transform="translate(51.73 158.1)">E</text><text class="cls-7" transform="translate(60.56 158.1)">S</text><text class="cls-7" transform="translate(75.13 158.1)">B</text><text class="cls-7" transform="translate(85.14 158.1)">O</text><text class="cls-7" transform="translate(95.11 158.1)">N</text><text class="cls-7" transform="translate(105.58 158.1)">S</text><text class="cls-7" transform="translate(120.16 158.1)">P</text><text class="cls-7" transform="translate(129.78 158.1)">L</text><text class="cls-7" transform="translate(138.14 158.1)">A</text><text class="cls-7" transform="translate(148.18 158.1)">N</text><text class="cls-7" transform="translate(158.66 158.1)">S</text></svg>N</text><text class="cls-7" transform="translate(158.66 158.1)">S</text></svg>